<?xml version="1.0" encoding="UTF-8"?>
<svg version="1.1" xmlns="http://www.w3.org/2000/svg" width="1400" height="1700">
<path d="M0 0 C2.03283617 3.04925425 2.75591534 5.25245453 3.71484375 8.76171875 C4.06095703 9.99623779 4.40707031 11.23075684 4.76367188 12.50268555 C4.95243896 13.17826508 5.14120605 13.8538446 5.33569336 14.54989624 C30.26350617 103.09293115 67.34506317 188.20665058 128.9453125 311.453125 C131.7174873 316.46360099 134.41585821 321.51133182 137.10839844 326.56494141 C144.40964003 340.24518373 152.07071816 353.67522939 160 367 C160.72494602 368.22020823 161.4498805 369.44042333 162.17480469 370.66064453 C164.48583684 374.54800886 166.80447752 378.43079544 169.125 382.3125 C169.65861145 383.20684753 169.65861145 383.20684753 170.20300293 384.1192627 C180.5502983 401.44465996 191.47876747 418.39430375 202.58129883 435.2434082 C204.4366608 438.06122547 206.28578146 440.88307307 208.13476562 443.70507812 C215.36610445 454.70724769 222.82678426 465.49370549 230.61785889 476.10667419 C232.75237443 479.03064001 234.84426689 481.9838568 236.9375 484.9375 C246.22485727 497.96362771 255.71433088 510.82517439 265.68212891 523.33935547 C267.01868234 525.02354155 268.34487521 526.71538011 269.66796875 528.41015625 C279.71660242 541.27968237 289.99678977 553.95472737 300.60546875 566.3671875 C302.07339599 568.08593704 303.53678241 569.80848996 305 571.53125 C310.48561613 577.97606129 316.05294241 584.32053006 321.7734375 590.55859375 C323.69133207 592.66154833 325.57376045 594.78669156 327.4375 596.9375 C331.67174968 601.79904593 336.02750502 606.54756781 340.40722656 611.27783203 C341.46602717 612.42264801 342.52268404 613.56945051 343.57714844 614.71826172 C353.28583082 625.28290982 363.3652025 635.47171978 373.5 645.625 C374.15602203 646.28361023 374.81204407 646.94222046 375.48794556 647.62078857 C384.68878878 656.90856243 384.68878878 656.90856243 394.41796875 665.63232422 C396.20203007 667.17465624 397.84910669 668.8166453 399.5 670.5 C402.46735323 673.51413582 405.57345292 676.29917333 408.77734375 679.05859375 C411.32976883 681.28804061 413.81887514 683.58001382 416.3125 685.875 C420.75250784 689.92521292 425.31934281 693.75534122 429.99609375 697.52734375 C433.49666926 700.40883178 436.90268533 703.38732379 440.3125 706.375 C446.80141464 712.04159622 453.47518629 717.41064793 460.29248047 722.67480469 C461.96538015 723.97313175 463.62706532 725.28439208 465.28515625 726.6015625 C537.39021387 783.84989638 618.18218646 830.9524453 790.85083008 894.3359375 C838.18347073 908.87306054 883.50891208 927.24357742 928 949 C928.8770459 949.42490723 929.7540918 949.84981445 930.65771484 950.28759766 C944.43196258 956.96433676 957.7496932 964.34107427 971 972 C972.17006592 972.67313232 972.17006592 972.67313232 973.36376953 973.35986328 C1014.94577417 997.31721865 1053.80735659 1025.47038487 1090.31298828 1056.56738281 C1091.98350403 1057.98599155 1093.66101042 1059.39593802 1095.33984375 1060.8046875 C1111.05980324 1074.0485262 1125.58494457 1088.4903726 1140.125 1103 C1140.85554596 1103.72786713 1141.58609192 1104.45573425 1142.33877563 1105.20565796 C1144.46063304 1107.32161825 1146.57860764 1109.44138655 1148.6953125 1111.5625 C1149.32709915 1112.19231277 1149.9588858 1112.82212555 1150.6098175 1113.47102356 C1154.38040475 1117.26091453 1157.96548234 1121.16590825 1161.45471191 1125.21659851 C1163.69998109 1127.80784116 1166.03804181 1130.30360345 1168.375 1132.8125 C1172.66430703 1137.45557189 1176.72678619 1142.23441617 1180.69140625 1147.16015625 C1182.77108772 1149.71841078 1184.89094876 1152.23183603 1187.03491211 1154.73583984 C1192.94254668 1161.63990573 1198.53099406 1168.74417073 1204 1176 C1204.4758252 1176.6280957 1204.95165039 1177.25619141 1205.44189453 1177.90332031 C1206.9640114 1179.91265336 1208.48266249 1181.92455586 1210 1183.9375 C1210.44980225 1184.53280518 1210.89960449 1185.12811035 1211.36303711 1185.74145508 C1220.24421074 1197.57728778 1228.62160261 1209.74273262 1236.8125 1222.0625 C1237.29144714 1222.78199829 1237.77039429 1223.50149658 1238.26385498 1224.24279785 C1255.21811225 1249.73515508 1270.5507414 1276.01280879 1285 1303 C1285.52207031 1303.97420898 1286.04414062 1304.94841797 1286.58203125 1305.95214844 C1321.24568521 1370.91487218 1346.98886204 1440.96358466 1366 1512 C1366.2064917 1512.76858337 1366.4129834 1513.53716675 1366.62573242 1514.32904053 C1380.20507337 1564.98823521 1389.66458801 1616.82942644 1395 1669 C1395.10530029 1670.01167236 1395.21060059 1671.02334473 1395.3190918 1672.06567383 C1395.86658859 1677.62557336 1396.13224981 1683.10214973 1396.0625 1688.6875 C1396.05798828 1689.40099609 1396.05347656 1690.11449219 1396.04882812 1690.84960938 C1396.03730574 1692.56644474 1396.0193863 1694.28323543 1396 1696 C1393.23441816 1696.92186061 1391.53943628 1697.13724703 1388.68259275 1697.16937619 C1387.79244145 1697.18170177 1386.90229015 1697.19402734 1385.98516457 1697.20672641 C1385.00280644 1697.21535855 1384.02044832 1697.22399069 1383.00832176 1697.23288441 C1381.960698 1697.24585749 1380.91307424 1697.25883058 1379.83370431 1697.27219679 C1376.27364487 1697.31490569 1372.71355017 1697.35045609 1369.15341187 1697.38594055 C1366.57350435 1697.41500765 1363.99360062 1697.44441223 1361.41370046 1697.47412473 C1354.22852622 1697.55563551 1347.04328148 1697.62909049 1339.85800546 1697.70098522 C1335.20296293 1697.74757799 1330.54793845 1697.7958401 1325.8929143 1697.84422851 C1302.13550276 1698.0903023 1278.37788805 1698.31197752 1254.620161 1698.52518287 C1251.77545477 1698.55076311 1248.93075003 1698.57650431 1246.08604568 1698.60229328 C1140.99176667 1699.55425627 1035.89833703 1700.12018672 784.73505736 1700.29293447 C780.73580486 1700.2929591 776.73655236 1700.29306565 772.73729986 1700.29317859 C770.14542814 1700.29323427 767.55355642 1700.29328783 764.9616847 1700.29333901 C763.8667219 1700.29337069 762.77175909 1700.29340236 761.64361559 1700.293435 C674.30406331 1700.29433877 586.96453741 1700.23403065 499.625 1700.1875 C252.310625 1700.0946875 252.310625 1700.0946875 0 1700 C0 1139 0 578 0 0 Z " fill="#E21818" transform="translate(0,0)"/>
</svg>